<svg width="1181" height="1181" viewBox="0 0 1181 1181" fill="none" xmlns="http://www.w3.org/2000/svg">
<path d="M1146.9 834.516L888.806 723.905C877.78 719.206 865.527 718.216 853.89 721.084C842.253 723.952 831.863 730.522 824.283 739.806L709.985 879.452C530.605 794.876 386.245 650.516 301.669 471.136L441.315 356.838C450.618 349.272 457.202 338.882 460.071 327.239C462.94 315.597 461.937 303.337 457.216 292.315L346.605 34.2225C341.422 22.3413 332.257 12.6406 320.688 6.79328C309.12 0.945945 295.874 -0.681549 283.234 2.19143L43.5766 57.4969C31.3903 60.311 20.5176 67.1726 12.7331 76.9618C4.9486 86.751 0.712037 98.8897 0.714845 111.397C0.714845 702.474 479.799 1180.64 1069.95 1180.64C1082.47 1180.64 1094.61 1176.41 1104.4 1168.63C1114.2 1160.84 1121.06 1149.96 1123.88 1137.77L1179.18 898.118C1182.04 885.416 1180.38 872.117 1174.48 860.509C1168.59 848.9 1158.84 839.709 1146.9 834.516Z" fill="black"/>
</svg>
